[center][img]http://img220.imageshack.us/img220/3993/zvqoz7h8.jpg[/img]



[img]http://leetleech.org/images/48874973695367351744.png[/img]


Format                           : AVI
Format/Info                      : Audio Video Interleave
File size                        : 1.07 GiB
Duration                         : 1h 24mn
Overall bit rate                 : 1 798 Kbps
Writing application              : TMPGEnc Video Mastering Works 5 Version. 5.0.5.32
Writing library                  : VirtualDub build 32839/release

Video
ID                               : 0
Format                           : MPEG-4 Visual
Format profile                   : Advanced Simple@L5
Format settings, BVOP            : Yes
Format settings, QPel            : No
Format settings, GMC             : No warppoints
Format settings, Matrix          : Custom
Codec ID                         : XVID
Codec ID/Hint                    : XviD
Duration                         : 1h 24mn
Bit rate                         : 1 659 Kbps
Width                            : 640 pixels
Height                           : 336 pixels
Display aspect ratio             : 1.905
Frame rate                       : 30.000 fps
Color space                      : YUV
Chroma subsampling               : 4:2:0
Bit depth                        : 8 bits
Scan type                        : Progressive
Bits/(Pixel*Frame)               : 0.257
Stream size                      : 1 007 MiB (92%)
Writing library                  : XviD 1.2.1 (UTC 2008-12-04)

Audio
ID                               : 1
Format                           : MPEG Audio
Format version                   : Version 1
Format profile                   : Layer 3
Mode                             : Joint stereo
Mode extension                   : MS Stereo
Codec ID                         : 55
Codec ID/Hint                    : MP3
Duration                         : 1h 24mn
Bit rate mode                    : Constant
Bit rate                         : 128 Kbps
Channel(s)                       : 2 channels
Sampling rate                    : 44.1 KHz
Stream size                      : 77.7 MiB (7%)
Alignment                        : Split accross interleaves
Interleave, duration             : 33 ms (1.00 video frame)
Interleave, preload duration     : 500 ms
Writing library                  : LAME3.98r
Encoding settings                : -m j -V 4 -q 2 -lowpass 17 -b 128




[url]http://www.imdb.com/title/tt1411704/[/url]




[IMG]http://leetleech.org/images/89524873606771859129.png[/IMG]



Users: 5.1/10 (2,515 votes) 44 reviews | Critics: 107 reviews Metascore: 41/100 (based on 23 reviews from Metacritic.com)

E.B., the Easter Bunny's teenage son, heads to Hollywood, determined to become a drummer in a rock 'n' roll band. In LA, he's taken in by Fred after the out-of-work slacker hits E.B. with his car.
Director:
Tim Hill
Writers:
Cinco Paul (screenplay), Ken Daurio (screenplay), and 3 more credits »
Stars:
Russell Brand, James Marsden and Elizabeth Perk


[img]http://leetleech.org/images/95521316153253938506.png[/img]




[img]http://img684.imageshack.us/img684/3857/vlcsnap2011042705h41m30.png[/img]

[img]http://img268.imageshack.us/img268/2807/vlcsnap2011042705h37m46.png[/img]

[img]http://img848.imageshack.us/img848/4226/vlcsnap2011042705h40m42.png[/img]

[img]http://img825.imageshack.us/img825/2189/vlcsnap2011042705h43m42.png[/img]


SOURCES:



VIDEO:IMAGiNE ................Thanks 

AUDIO:IMAGiNE .................Thanks


Video does have its flaws but its 100xs better than that mad flickering source that was about poor hop couldnt see shit through that flicker ....

Did a slight denoise levels filter and rgb colour anyway sample is included as stated it has flaws but way better thanks to IMAGiNE once again 

Enjoy

Greetz to Imagine ,Flawl3ss,DiLLoN,BDK,NOiR,TOXiCiNK,THC,Ez,Rx,Boobyblue





[img]http://img411.imageshack.us/img411/6898/sig1n.jpg[/img]












[/center]